<svg id="Component_45_4" data-name="Component 45 – 4" xmlns="http://www.w3.org/2000/svg" xmlns:xlink="http://www.w3.org/1999/xlink" width="52.501" height="126.935" viewBox="0 0 52.501 126.935">
  <defs>
    <clipPath id="clip-path">
      <rect id="Rectangle_23825" data-name="Rectangle 23825" width="52.501" height="126.935" fill="#fff"/>
    </clipPath>
  </defs>
  <g id="Group_43949" data-name="Group 43949" clip-path="url(#clip-path)">
    <path id="Path_312613" data-name="Path 312613" d="M32.811,49.686V21.425A1.713,1.713,0,0,0,31.1,19.712H21.672a1.713,1.713,0,0,0-1.713,1.713V22.67c0,24,.032,48-.053,72-.008,2.268.459,3.973,2.268,5.393a36.947,36.947,0,0,1,3.05,2.819,1.715,1.715,0,0,0,2.394.016c1.656-1.594,3.3-3.149,4.814-4.815.457-.5.409-1.562.412-2.366.027-8.166.017-21.333.017-29.5V65.062a1.713,1.713,0,0,1,1.713-1.713h16.21A1.693,1.693,0,0,1,52.495,65v.017c.005,12.249.028,29.5-.063,41.748a4.035,4.035,0,0,1-1.279,2.882c-7.815,5.69-15.716,11.262-23.755,16.972a1.714,1.714,0,0,1-1.985,0c-5.731-4.073-11.495-8.15-17.229-12.267-2.622-1.883-6.137-3.359-7.485-5.939-1.306-2.5-.385-6.182-.386-9.345Q.3,51.194.31,3.321V1.713A1.713,1.713,0,0,1,2.023,0H50.654a1.713,1.713,0,0,1,1.713,1.713V49.686A1.713,1.713,0,0,1,50.654,51.4H34.525a1.713,1.713,0,0,1-1.713-1.713" transform="translate(0)" fill="#fff"/>
  </g>
</svg>
