<svg xmlns="http://www.w3.org/2000/svg" xmlns:xlink="http://www.w3.org/1999/xlink" width="100.866" height="100.434" viewBox="0 0 100.866 100.434">
  <defs>
    <filter id="Path_12" x="0" y="0" width="100.866" height="100.434" filterUnits="userSpaceOnUse">
      <feOffset dy="3" input="SourceAlpha"/>
      <feGaussianBlur stdDeviation="3" result="blur"/>
      <feFlood flood-opacity="0.161"/>
      <feComposite operator="in" in2="blur"/>
      <feComposite in="SourceGraphic"/>
    </filter>
  </defs>
  <g id="Component_40_1" data-name="Component 40 – 1" transform="translate(9.593 6.592)">
    <g transform="matrix(1, 0, 0, 1, -9.59, -6.59)" filter="url(#Path_12)" style="mix-blend-mode: soft-light;isolation: isolate">
      <path id="Path_12-2" data-name="Path 12" d="M58.112,420.492A40.629,40.629,0,1,1,86.98,370.747,40.851,40.851,0,0,1,58.112,420.492Z" transform="translate(2.89 -334.05)" fill="#fff" stroke="#fff" stroke-width="1" opacity="0.6"/>
    </g>
    <g id="Group_43943" data-name="Group 43943" transform="translate(14 13.78)">
      <path id="Path_312604" data-name="Path 312604" d="M36.214,5H17.786A12.286,12.286,0,0,0,5.5,17.286V35.714A12.286,12.286,0,0,0,17.786,48H36.214A12.286,12.286,0,0,0,48.5,35.714V17.286A12.286,12.286,0,0,0,36.214,5Z" transform="translate(0)" fill="none" stroke="#000" stroke-linecap="round" stroke-linejoin="round" stroke-width="1"/>
      <path id="Path_312605" data-name="Path 312605" d="M18.714,27.429a9.214,9.214,0,1,1,9.214-9.214,9.214,9.214,0,0,1-9.214,9.214Z" transform="translate(8.286 8.286)" fill="none" stroke="#000" stroke-linecap="round" stroke-linejoin="round" stroke-width="1"/>
      <rect id="Rectangle_23812" data-name="Rectangle 23812" width="6" height="6" rx="3" transform="translate(37 16.5) rotate(-90)" fill="none" stroke="#080808" stroke-width="1"/>
    </g>
  </g>
</svg>
