<svg xmlns="http://www.w3.org/2000/svg" xmlns:xlink="http://www.w3.org/1999/xlink" width="81.868" height="81.868" viewBox="0 0 81.868 81.868">
  <defs>
    <filter id="Path_34" x="0" y="0" width="81.868" height="81.868" filterUnits="userSpaceOnUse">
      <feOffset dy="9" input="SourceAlpha"/>
      <feGaussianBlur stdDeviation="5.5" result="blur"/>
      <feFlood flood-opacity="0.161"/>
      <feComposite operator="in" in2="blur"/>
      <feComposite in="SourceGraphic"/>
    </filter>
  </defs>
  <g id="Group_43957" data-name="Group 43957" transform="translate(-765.674 -898.859)">
    <g id="Group_4" data-name="Group 4" transform="translate(782.174 906.359)">
      <g transform="matrix(1, 0, 0, 1, -16.5, -7.5)" filter="url(#Path_34)">
        <path id="Path_34-2" data-name="Path 34" d="M505.434,653.868A24.434,24.434,0,1,0,481,629.434,24.434,24.434,0,0,0,505.434,653.868Z" transform="translate(-464.5 -597.5)" fill="#fff"/>
      </g>
    </g>
    <path id="Path_52" data-name="Path 52" d="M499.183,612.776a2.837,2.837,0,0,0-2.559,2.208c-.057.407-.086.445-.312.445a2.789,2.789,0,0,0-1.493.786,3.1,3.1,0,0,0-.474,2.939c.152.407.162.483.029.806a4.66,4.66,0,0,0-.209.9l-.067.543h-.464c-.445,0-.455.01-.521.331a14.081,14.081,0,0,0,.19,3.318,10.284,10.284,0,0,0,1.64,3.122,8.3,8.3,0,0,0,13.021-.331,7.955,7.955,0,0,0,1.611-4.919c0-1.431-.029-1.507-.464-1.545l-.341-.029-.057-.569a3.643,3.643,0,0,0-.2-.89c-.136-.3-.136-.35.029-.711a3.77,3.77,0,0,0,.038-2.152,2.436,2.436,0,0,0-1.858-1.583c-.4-.067-.407-.076-.436-.474-.114-1.7-2.739-2.834-4.48-1.933-.331.171-.341.171-.815-.038A3.225,3.225,0,0,0,499.183,612.776Zm1.459,1.043.4.181v1.7c0,1.887,0,1.887-.635,1.981-.543.086-.692.19-.692.5s.257.5.616.426c.136-.029.341-.067.474-.1l.238-.048V621.4h-5.973v-.407a2.372,2.372,0,0,1,.19-.814,1.157,1.157,0,0,0,0-1.233,1.831,1.831,0,0,1-.06-1.6,1.821,1.821,0,0,1,1.226-1.033,1.588,1.588,0,0,1,1.493.5,1.63,1.63,0,0,0,.635.417.4.4,0,0,0,.407-.379c0-.284-.531-.9-.976-1.138-.407-.219-.445-.271-.445-.588a1.553,1.553,0,0,1,.862-1.166c.247-.136.271-.124.512.162a1.245,1.245,0,0,1,.388,1.052c-.076.388.086.635.417.635s.474-.219.474-.833a1.889,1.889,0,0,0-.236-.909l-.228-.436h.257a2.069,2.069,0,0,1,.66.183Zm2.323.247a1.865,1.865,0,0,0-.136,1.592c.161.2.635.2.711,0a2.248,2.248,0,0,0,.057-.521,1.319,1.319,0,0,1,.455-1.052c.219-.238.255-.247.493-.124a1.609,1.609,0,0,1,.852,1.147.428.428,0,0,1-.058.3.435.435,0,0,1-.244.189c-.464.247-1.119.938-1.119,1.185,0,.5.543.607.872.162a1.793,1.793,0,0,1,1.943-.559,1.9,1.9,0,0,1,.881,2.54,1.328,1.328,0,0,0,0,1.328,2.265,2.265,0,0,1,.19.778v.369h-5.973V619.7a9.07,9.07,0,0,1,.076-1.706,1.783,1.783,0,0,1,.3.136,1.855,1.855,0,0,0,1.374.01c.271-.114.331-.19.331-.417,0-.426-.2-.543-.711-.4s-.721.038-1.128-.5c-.238-.3-.247-.379-.247-1.493a6.946,6.946,0,0,1,.076-1.29,1.785,1.785,0,0,1,.986-.407h.257Zm5.734,9.118a7.365,7.365,0,0,1-6.54,7.042,7.644,7.644,0,0,1-4.6-.966,10.133,10.133,0,0,1-1.45-1.222,5.907,5.907,0,0,1-1.3-1.659,7.608,7.608,0,0,1-.852-3.156l-.057-.967h14.844Z" transform="translate(305.494 304.119)" fill="#801d0c" stroke="#801d0c" stroke-width="0.1"/>
    <path id="Path_55" data-name="Path 55" d="M495.733,626.824a11.807,11.807,0,0,0-3.318,1.6,14.222,14.222,0,0,0-4.36,5.762c-.426,1.043-.426,1.431.01,1.469.341.038.417-.048.645-.692a17.433,17.433,0,0,1,1.735-3.194,10.252,10.252,0,0,1,6.161-4.246c.483-.124.635-.455.36-.759C496.756,626.539,496.781,626.539,495.733,626.824Z" transform="translate(303.582 309.081)" fill="#801d0c" stroke="#801d0c" stroke-width="0.1"/>
    <path id="Path_56" data-name="Path 56" d="M503.517,626.716c-.379.379-.123.721.664.891a9.94,9.94,0,0,1,4.938,3.023,15.216,15.216,0,0,1,2.635,4.332c.237.645.312.73.654.692.436-.038.436-.426.01-1.469a14.117,14.117,0,0,0-3.258-4.786,10.042,10.042,0,0,0-4.237-2.521C503.849,626.564,503.687,626.545,503.517,626.716Z" transform="translate(309.161 309.083)" fill="#801d0c" stroke="#801d0c" stroke-width="0.1"/>
  </g>
</svg>
