<svg xmlns="http://www.w3.org/2000/svg" xmlns:xlink="http://www.w3.org/1999/xlink" width="81.868" height="81.868" viewBox="0 0 81.868 81.868">
  <defs>
    <filter id="Path_32" x="0" y="0" width="81.868" height="81.868" filterUnits="userSpaceOnUse">
      <feOffset dy="9" input="SourceAlpha"/>
      <feGaussianBlur stdDeviation="5.5" result="blur"/>
      <feFlood flood-opacity="0.161"/>
      <feComposite operator="in" in2="blur"/>
      <feComposite in="SourceGraphic"/>
    </filter>
  </defs>
  <g id="Group_43959" data-name="Group 43959" transform="translate(-177.898 -159.049)">
    <g id="Group_2" data-name="Group 2" transform="translate(194.398 166.549)">
      <g transform="matrix(1, 0, 0, 1, -16.5, -7.5)" filter="url(#Path_32)">
        <path id="Path_32-2" data-name="Path 32" d="M72.434,108.868A24.434,24.434,0,1,0,48,84.434,24.434,24.434,0,0,0,72.434,108.868Z" transform="translate(-31.5 -52.5)" fill="#fff"/>
      </g>
    </g>
    <path id="Path_57" data-name="Path 57" d="M62.152,70.357c-3.5,0-3.879.016-4.14.147a1.336,1.336,0,0,0-.466.417l-.188.278V81.273c0,9.844.008,10.081.164,10.335a1.271,1.271,0,0,0,.425.409c.254.139.843.147,11.48.147,11.128,0,11.21,0,11.5-.164a1.684,1.684,0,0,0,.45-.45c.164-.286.164-.393.164-7.855s0-7.569-.164-7.855a1.68,1.68,0,0,0-.45-.45c-.278-.164-.426-.164-5.973-.188l-5.687-.024-1.277-2.226c-1.186-2.062-1.309-2.242-1.628-2.406C66.006,70.357,65.99,70.357,62.152,70.357Zm0-1.357c1.939,0,2.913,0,3.471.025a2.773,2.773,0,0,1,1.366.319c.695.359.925.76,2.174,2.931l.888,1.549,4.971.021c2.774.012,4.167.018,4.942.043a3.126,3.126,0,0,1,1.647.333l.036.022a3.027,3.027,0,0,1,.874.873l.031.051a3.545,3.545,0,0,1,.322,1.882c.021,1.009.021,2.893.021,6.647s0,5.637-.021,6.647a3.545,3.545,0,0,1-.322,1.882l-.031.052a3.032,3.032,0,0,1-.873.873l-.051.031c-.474.271-.84.3-2.337.322-1.457.021-4.256.021-9.833.021-5.42,0-8.139,0-9.651-.022-1.642-.021-2.036-.049-2.481-.293l-.007,0a2.639,2.639,0,0,1-.936-.908c-.271-.452-.3-.841-.327-2.237C56,88.744,56,86.254,56,81.273V70.784l.413-.61a2.671,2.671,0,0,1,1-.888C57.991,69,58.4,69,62.152,69Z" transform="translate(149.258 109.766)" fill="#801d0c"/>
  </g>
</svg>
