<svg xmlns="http://www.w3.org/2000/svg" width="44" height="44" viewBox="0 0 44 44">
  <g id="Group_43943" data-name="Group 43943" transform="translate(-5 -4.5)">
    <path id="Path_312604" data-name="Path 312604" d="M36.214,5H17.786A12.286,12.286,0,0,0,5.5,17.286V35.714A12.286,12.286,0,0,0,17.786,48H36.214A12.286,12.286,0,0,0,48.5,35.714V17.286A12.286,12.286,0,0,0,36.214,5Z" transform="translate(0)" fill="none" stroke="#000" stroke-linecap="round" stroke-linejoin="round" stroke-width="1"/>
    <path id="Path_312605" data-name="Path 312605" d="M18.714,27.429a9.214,9.214,0,1,1,9.214-9.214,9.214,9.214,0,0,1-9.214,9.214Z" transform="translate(8.286 8.286)" fill="none" stroke="#000" stroke-linecap="round" stroke-linejoin="round" stroke-width="1"/>
    <rect id="Rectangle_23812" data-name="Rectangle 23812" width="6" height="6" rx="3" transform="translate(37 16.5) rotate(-90)" fill="none" stroke="#080808" stroke-width="1"/>
  </g>
</svg>
