<svg xmlns="http://www.w3.org/2000/svg" width="37.911" height="37.917" viewBox="0 0 37.911 37.917">
  <path id="Path_312606" data-name="Path 312606" d="M103.511,69.318V100.8a2.722,2.722,0,0,1-2.718,2.718H69.318A2.722,2.722,0,0,1,66.6,100.8V69.318A2.722,2.722,0,0,1,69.318,66.6H100.8a2.713,2.713,0,0,1,2.713,2.718Zm-26.054,11.4H72.031V98.085h5.426Zm.493-5.974a3.129,3.129,0,0,0-1.9-2.9,3.059,3.059,0,0,0-1.2-.244h-.1a3.15,3.15,0,0,0,0,6.3,3.074,3.074,0,0,0,1.2-.21,3.193,3.193,0,0,0,1.03-.653,3.076,3.076,0,0,0,.7-1,3.157,3.157,0,0,0,.266-1.19ZM98.085,87.533c0-5.221-3.322-7.253-6.622-7.253a6.208,6.208,0,0,0-5.5,2.8h-.149V80.718h-5.1V98.085h5.426v-9.24a3.606,3.606,0,0,1,3.255-3.887h.2c1.727,0,3.006,1.085,3.006,3.82v9.3H98.03Z" transform="translate(-66.1 -66.1)" fill="none" stroke="#000" stroke-linejoin="round" stroke-width="1"/>
</svg>
