<svg xmlns="http://www.w3.org/2000/svg" width="44.008" height="33.521" viewBox="0 0 44.008 33.521">
  <path id="Path_312607" data-name="Path 312607" d="M21.491.02C27.168.02,32.845.064,38.522,0a4.3,4.3,0,0,1,4.486,4.486C42.977,12.348,43,20.21,43,28.072a4.18,4.18,0,0,1-4.449,4.449H4.428A4.174,4.174,0,0,1,.012,28.1C.01,20.216.03,12.335,0,4.454A4.3,4.3,0,0,1,4.46,0C10.136.063,15.813.02,21.491.02M41.047,2.812c-.3.217-.456.32-.6.433l-16.77,12.8a1.763,1.763,0,0,1-2.572.084L4,3.682c-.55-.4-1.105-.795-1.658-1.192" transform="translate(0.5 0.5)" fill="none" stroke="#0a0a0a" stroke-linecap="round" stroke-width="1"/>
</svg>
