<svg xmlns="http://www.w3.org/2000/svg" xmlns:xlink="http://www.w3.org/1999/xlink" width="316.702" height="280.263" viewBox="0 0 316.702 280.263">
  <defs>
    <filter id="Path_19" x="0" y="0" width="316.702" height="280.263" filterUnits="userSpaceOnUse">
      <feOffset input="SourceAlpha"/>
      <feGaussianBlur stdDeviation="5.5" result="blur"/>
      <feFlood flood-color="#436eff" flood-opacity="0.49" result="color"/>
      <feComposite operator="out" in="SourceGraphic" in2="blur"/>
      <feComposite operator="in" in="color"/>
      <feComposite operator="in" in2="SourceGraphic"/>
    </filter>
  </defs>
  <g data-type="innerShadowGroup">
    <path id="Path_19-2" data-name="Path 19" d="M29.439,5.155l-.01,0-.01.005A17.979,17.979,0,0,0,23.087,10.7,13.986,13.986,0,0,0,20.5,18.8v124.08c0,62.689.026,94.8.307,111.634.14,8.411.343,13.041.643,15.775a16.265,16.265,0,0,0,.543,2.994,6.357,6.357,0,0,0,.754,1.613h0l.009.015a17.133,17.133,0,0,0,5.774,5.423l.013.007.013.007c.97.509,2.2.85,5.56,1.109s8.977.442,18.777.569c19.609.255,56.082.294,125.186.294,72.313,0,108.733,0,127.542-.261,9.394-.132,14.424-.328,17.343-.626a17.315,17.315,0,0,0,3.16-.547,7.781,7.781,0,0,0,1.709-.756l.024-.013.023-.016a22.431,22.431,0,0,0,6.059-5.92l.015-.024.015-.024a8.875,8.875,0,0,0,.761-1.572,12.54,12.54,0,0,0,.566-2.5,114.421,114.421,0,0,0,.64-12.029c.268-12.683.268-36.79.268-84.3v-.05c0-47.507,0-71.614-.268-84.3a114.457,114.457,0,0,0-.64-12.03,12.533,12.533,0,0,0-.566-2.5,8.827,8.827,0,0,0-.761-1.572l-.015-.024-.015-.023a22.376,22.376,0,0,0-6.059-5.94l-.015-.011-.017-.01a9.368,9.368,0,0,0-3.743-1.311,80.753,80.753,0,0,0-9.72-.665c-9.874-.3-28.168-.377-63.575-.53l-.959,0-73.45-.309L160.036,36.469h0c-7.7-13.12-11.969-20.29-14.831-24.435a27.374,27.374,0,0,0-3.57-4.4,11.946,11.946,0,0,0-3.069-2.091,13.749,13.749,0,0,0-3.628-1.453,39.719,39.719,0,0,0-7.029-.733c-6.876-.3-19.408-.3-44.293-.3h-.081C60.8,3.134,48.2,3.224,40.852,3.5,33.531,3.781,31.3,4.246,29.439,5.155Z" transform="translate(-20 -2.556)" fill="#436eff"/>
    <g transform="matrix(1, 0, 0, 1, 0, 0)" filter="url(#Path_19)">
      <path id="Path_19-3" data-name="Path 19" d="M29.439,5.155l-.01,0-.01.005A17.979,17.979,0,0,0,23.087,10.7,13.986,13.986,0,0,0,20.5,18.8v124.08c0,62.689.026,94.8.307,111.634.14,8.411.343,13.041.643,15.775a16.265,16.265,0,0,0,.543,2.994,6.357,6.357,0,0,0,.754,1.613h0l.009.015a17.133,17.133,0,0,0,5.774,5.423l.013.007.013.007c.97.509,2.2.85,5.56,1.109s8.977.442,18.777.569c19.609.255,56.082.294,125.186.294,72.313,0,108.733,0,127.542-.261,9.394-.132,14.424-.328,17.343-.626a17.315,17.315,0,0,0,3.16-.547,7.781,7.781,0,0,0,1.709-.756l.024-.013.023-.016a22.431,22.431,0,0,0,6.059-5.92l.015-.024.015-.024a8.875,8.875,0,0,0,.761-1.572,12.54,12.54,0,0,0,.566-2.5,114.421,114.421,0,0,0,.64-12.029c.268-12.683.268-36.79.268-84.3v-.05c0-47.507,0-71.614-.268-84.3a114.457,114.457,0,0,0-.64-12.03,12.533,12.533,0,0,0-.566-2.5,8.827,8.827,0,0,0-.761-1.572l-.015-.024-.015-.023a22.376,22.376,0,0,0-6.059-5.94l-.015-.011-.017-.01a9.368,9.368,0,0,0-3.743-1.311,80.753,80.753,0,0,0-9.72-.665c-9.874-.3-28.168-.377-63.575-.53l-.959,0-73.45-.309L160.036,36.469h0c-7.7-13.12-11.969-20.29-14.831-24.435a27.374,27.374,0,0,0-3.57-4.4,11.946,11.946,0,0,0-3.069-2.091,13.749,13.749,0,0,0-3.628-1.453,39.719,39.719,0,0,0-7.029-.733c-6.876-.3-19.408-.3-44.293-.3h-.081C60.8,3.134,48.2,3.224,40.852,3.5,33.531,3.781,31.3,4.246,29.439,5.155Z" transform="translate(-20 -2.56)" fill="#fff"/>
    </g>
    <path id="Path_19-4" data-name="Path 19" d="M29.439,5.155l-.01,0-.01.005A17.979,17.979,0,0,0,23.087,10.7,13.986,13.986,0,0,0,20.5,18.8v124.08c0,62.689.026,94.8.307,111.634.14,8.411.343,13.041.643,15.775a16.265,16.265,0,0,0,.543,2.994,6.357,6.357,0,0,0,.754,1.613h0l.009.015a17.133,17.133,0,0,0,5.774,5.423l.013.007.013.007c.97.509,2.2.85,5.56,1.109s8.977.442,18.777.569c19.609.255,56.082.294,125.186.294,72.313,0,108.733,0,127.542-.261,9.394-.132,14.424-.328,17.343-.626a17.315,17.315,0,0,0,3.16-.547,7.781,7.781,0,0,0,1.709-.756l.024-.013.023-.016a22.431,22.431,0,0,0,6.059-5.92l.015-.024.015-.024a8.875,8.875,0,0,0,.761-1.572,12.54,12.54,0,0,0,.566-2.5,114.421,114.421,0,0,0,.64-12.029c.268-12.683.268-36.79.268-84.3v-.05c0-47.507,0-71.614-.268-84.3a114.457,114.457,0,0,0-.64-12.03,12.533,12.533,0,0,0-.566-2.5,8.827,8.827,0,0,0-.761-1.572l-.015-.024-.015-.023a22.376,22.376,0,0,0-6.059-5.94l-.015-.011-.017-.01a9.368,9.368,0,0,0-3.743-1.311,80.753,80.753,0,0,0-9.72-.665c-9.874-.3-28.168-.377-63.575-.53l-.959,0-73.45-.309L160.036,36.469h0c-7.7-13.12-11.969-20.29-14.831-24.435a27.374,27.374,0,0,0-3.57-4.4,11.946,11.946,0,0,0-3.069-2.091,13.749,13.749,0,0,0-3.628-1.453,39.719,39.719,0,0,0-7.029-.733c-6.876-.3-19.408-.3-44.293-.3h-.081C60.8,3.134,48.2,3.224,40.852,3.5,33.531,3.781,31.3,4.246,29.439,5.155Z" transform="translate(-20 -2.556)" fill="none" stroke="#fff" stroke-width="1"/>
  </g>
</svg>
